<?xml version="1.0" standalone="no"?>
<!DOCTYPE svg PUBLIC "-//W3C//DTD SVG 20010904//EN"
 "http://www.w3.org/TR/2001/REC-SVG-20010904/DTD/svg10.dtd">
<svg version="1.0" xmlns="http://www.w3.org/2000/svg"
 width="512.000000pt" height="512.000000pt" viewBox="0 0 512.000000 512.000000"
 preserveAspectRatio="xMidYMid meet">
<metadata>
Created by potrace 1.14, written by Peter Selinger 2001-2017
</metadata>
<g transform="translate(0.000000,512.000000) scale(0.100000,-0.100000)"
fill="#000000" stroke="none">
<path d="M2195 4866 c-76 -34 -111 -111 -109 -241 3 -159 59 -292 172 -407 52
-53 54 -58 32 -58 -51 0 -106 -23 -142 -60 -35 -35 -38 -42 -38 -95 0 -73 25
-116 84 -144 23 -12 61 -21 85 -21 l42 0 -63 -52 c-262 -216 -501 -535 -624
-833 -72 -176 -128 -485 -110 -606 l7 -46 47 8 c26 4 244 8 485 8 l438 1 -31
38 c-69 86 -91 212 -45 257 48 49 135 15 135 -52 0 -52 41 -116 90 -140 56
-29 84 -29 140 0 48 24 90 88 90 137 0 14 -10 46 -22 70 -28 54 -90 90 -155
90 -114 0 -239 91 -282 205 -28 74 -25 175 7 248 27 61 108 140 167 162 l45
18 0 59 c0 49 4 63 25 83 32 33 78 33 110 0 21 -20 25 -34 25 -82 l0 -58 51
-24 c105 -48 176 -148 186 -262 5 -52 3 -60 -20 -83 -50 -50 -137 -17 -137 51
0 52 -41 116 -90 141 -24 12 -56 22 -70 22 -49 0 -113 -42 -137 -90 -13 -24
-23 -56 -23 -70 0 -14 10 -46 23 -70 27 -54 89 -90 154 -90 23 0 67 -9 97 -20
198 -75 269 -326 140 -496 l-34 -44 193 0 c236 0 232 2 225 -97 -9 -121 -75
-220 -183 -274 -49 -24 -55 -24 -377 -29 l-328 -5 -32 -33 c-28 -28 -33 -39
-33 -82 0 -43 5 -54 33 -82 l32 -33 443 0 442 0 56 26 c118 55 183 159 185
291 l0 77 164 152 163 153 -7 93 c-25 363 -171 701 -439 1018 -84 100 -207
223 -302 303 l-50 42 41 0 c55 0 122 37 145 80 26 47 25 123 -1 166 -25 39
-92 74 -144 74 l-38 0 66 70 c112 119 160 239 161 400 0 93 -3 111 -25 154
-36 70 -68 91 -138 91 -48 0 -66 -6 -110 -33 -38 -25 -67 -35 -111 -39 -55 -5
-64 -3 -128 33 -94 53 -150 53 -250 1 -98 -50 -155 -51 -234 -2 -65 40 -121
51 -164 31z"/>
<path d="M4640 2822 c0 -103 -10 -120 -420 -687 -215 -297 -411 -563 -435
-591 -60 -70 -154 -140 -250 -185 -163 -76 -113 -72 -960 -78 l-760 -6 -50
-23 c-27 -13 -76 -48 -108 -80 l-57 -56 -403 401 c-435 435 -423 425 -514 408
-32 -6 -69 -38 -238 -206 l-200 -199 637 -637 638 -638 191 190 c105 105 197
202 205 217 17 32 18 101 3 131 -6 12 -28 39 -48 60 l-36 39 56 52 c32 29 79
64 105 77 l49 24 755 5 c732 6 757 7 831 27 156 44 279 120 388 239 79 87 807
1094 834 1154 30 65 29 169 -1 235 -37 80 -109 144 -189 169 -22 7 -23 5 -23
-42z"/>
</g>
</svg>
